<?xml version="1.0" encoding="UTF-8"?>
<svg width="700pt" height="700pt" version="1.1" viewBox="0 0 700 700" xmlns="http://www.w3.org/2000/svg" xmlns:xlink="http://www.w3.org/1999/xlink">
 <defs>
  <symbol id="v" overflow="visible">
   <path d="m11.438-0.6875c-0.58594 0.3125-1.1992 0.54297-1.8438 0.6875-0.63672 0.15625-1.3047 0.23438-2 0.23438-2.0742 0-3.7188-0.57812-4.9375-1.7344-1.2109-1.1562-1.8125-2.7266-1.8125-4.7188 0-1.9883 0.60156-3.5625 1.8125-4.7188 1.2188-1.1562 2.8633-1.7344 4.9375-1.7344 0.69531 0 1.3633 0.078125 2 0.23438 0.64453 0.15625 1.2578 0.38672 1.8438 0.6875v2.5781c-0.59375-0.40625-1.1836-0.70312-1.7656-0.89062-0.57422-0.1875-1.1797-0.28125-1.8125-0.28125-1.1484 0-2.0469 0.37109-2.7031 1.1094-0.65625 0.73047-0.98438 1.7344-0.98438 3.0156 0 1.293 0.32812 2.3086 0.98438 3.0469 0.65625 0.73047 1.5547 1.0938 2.7031 1.0938 0.63281 0 1.2383-0.09375 1.8125-0.28125 0.58203-0.19531 1.1719-0.5 1.7656-0.90625z"/>
  </symbol>
  <symbol id="c" overflow="visible">
   <path d="m8.375-6.7969c-0.26172-0.125-0.52344-0.21094-0.78125-0.26562-0.26172-0.0625-0.52344-0.09375-0.78125-0.09375-0.77344 0-1.3672 0.25-1.7812 0.75-0.40625 0.49219-0.60938 1.1953-0.60938 2.1094v4.2969h-2.9844v-9.3438h2.9844v1.5312c0.38281-0.60156 0.82031-1.0469 1.3125-1.3281 0.5-0.28125 1.0977-0.42188 1.7969-0.42188 0.10156 0 0.21094 0.007812 0.32812 0.015625 0.11328 0 0.28125 0.015625 0.5 0.046875z"/>
  </symbol>
  <symbol id="a" overflow="visible">
   <path d="m10.75-4.6875v0.84375h-6.9688c0.070312 0.69922 0.32031 1.2266 0.75 1.5781 0.4375 0.34375 1.0469 0.51562 1.8281 0.51562 0.625 0 1.2656-0.085938 1.9219-0.26562 0.65625-0.1875 1.332-0.47266 2.0312-0.85938v2.3125c-0.71094 0.26172-1.418 0.46094-2.125 0.59375-0.69922 0.13281-1.4023 0.20312-2.1094 0.20312-1.6875 0-3-0.42578-3.9375-1.2812-0.9375-0.85156-1.4062-2.0547-1.4062-3.6094 0-1.5312 0.45703-2.7266 1.375-3.5938 0.92578-0.875 2.1914-1.3125 3.7969-1.3125 1.4688 0 2.6406 0.44531 3.5156 1.3281 0.88281 0.88672 1.3281 2.0703 1.3281 3.5469zm-3.0625-1c0-0.5625-0.16797-1.0156-0.5-1.3594-0.32422-0.35156-0.75781-0.53125-1.2969-0.53125-0.57422 0-1.043 0.16406-1.4062 0.48438-0.36719 0.32422-0.58984 0.79297-0.67188 1.4062z"/>
  </symbol>
  <symbol id="e" overflow="visible">
   <path d="m5.625-4.2031c-0.625 0-1.0938 0.10938-1.4062 0.32812-0.3125 0.21094-0.46875 0.51562-0.46875 0.92188 0 0.375 0.125 0.67188 0.375 0.89062 0.25 0.21094 0.59766 0.3125 1.0469 0.3125 0.5625 0 1.0352-0.19531 1.4219-0.59375 0.38281-0.40625 0.57812-0.91016 0.57812-1.5156v-0.34375zm4.5625-1.125v5.3281h-3.0156v-1.3906c-0.39844 0.57422-0.85156 0.99219-1.3594 1.25-0.5 0.25-1.1055 0.375-1.8125 0.375-0.96875 0-1.7578-0.28125-2.3594-0.84375-0.60547-0.5625-0.90625-1.2891-0.90625-2.1875 0-1.0938 0.375-1.8945 1.125-2.4062 0.75781-0.51953 1.9414-0.78125 3.5469-0.78125h1.7656v-0.23438c0-0.46875-0.1875-0.8125-0.5625-1.0312s-0.95312-0.32812-1.7344-0.32812c-0.64844 0-1.2461 0.0625-1.7969 0.1875-0.54297 0.125-1.0547 0.32031-1.5312 0.57812v-2.2812c0.64453-0.15625 1.2852-0.26953 1.9219-0.34375 0.64453-0.082031 1.2891-0.125 1.9375-0.125 1.6875 0 2.9062 0.33594 3.6562 1 0.75 0.65625 1.125 1.7344 1.125 3.2344z"/>
  </symbol>
  <symbol id="b" overflow="visible">
   <path d="m4.6875-11.984v2.6406h3.0781v2.1406h-3.0781v3.9531c0 0.4375 0.085938 0.73438 0.26562 0.89062 0.17578 0.14844 0.51953 0.21875 1.0312 0.21875h1.5312v2.1406h-2.5625c-1.1797 0-2.0156-0.24219-2.5156-0.73438-0.49219-0.48828-0.73438-1.3281-0.73438-2.5156v-3.9531h-1.4844v-2.1406h1.4844v-2.6406z"/>
  </symbol>
  <symbol id="j" overflow="visible">
   <path d="m7.7812-7.9688v-5h3.0156v12.969h-3.0156v-1.3438c-0.40625 0.54297-0.85938 0.94531-1.3594 1.2031-0.49219 0.25-1.0586 0.375-1.7031 0.375-1.1562 0-2.1055-0.45312-2.8438-1.3594-0.74219-0.91406-1.1094-2.0938-1.1094-3.5312 0-1.4453 0.36719-2.625 1.1094-3.5312 0.73828-0.91406 1.6875-1.375 2.8438-1.375 0.63281 0 1.2031 0.13281 1.7031 0.39062 0.5 0.25 0.95312 0.65234 1.3594 1.2031zm-1.9531 6.0469c0.63281 0 1.1172-0.23438 1.4531-0.70312 0.33203-0.46875 0.5-1.1445 0.5-2.0312 0-0.89453-0.16797-1.5703-0.5-2.0312-0.33594-0.46875-0.82031-0.70312-1.4531-0.70312-0.63672 0-1.125 0.23438-1.4688 0.70312-0.33594 0.46094-0.5 1.1367-0.5 2.0312 0 0.88672 0.16406 1.5625 0.5 2.0312 0.34375 0.46875 0.83203 0.70312 1.4688 0.70312z"/>
  </symbol>
  <symbol id="i" overflow="visible">
   <path d="m6.4062-1.9219c0.63281 0 1.1172-0.23438 1.4531-0.70312 0.34375-0.46875 0.51562-1.1445 0.51562-2.0312 0-0.89453-0.17188-1.5703-0.51562-2.0312-0.33594-0.46875-0.82031-0.70312-1.4531-0.70312-0.63672 0-1.125 0.23438-1.4688 0.70312s-0.51562 1.1484-0.51562 2.0312c0 0.88672 0.17188 1.5625 0.51562 2.0312s0.83203 0.70312 1.4688 0.70312zm-1.9844-6.0469c0.40625-0.55078 0.85938-0.95312 1.3594-1.2031 0.5-0.25781 1.0781-0.39062 1.7344-0.39062 1.1445 0 2.0859 0.46094 2.8281 1.375 0.73828 0.90625 1.1094 2.0859 1.1094 3.5312 0 1.4375-0.37109 2.6172-1.1094 3.5312-0.74219 0.90625-1.6836 1.3594-2.8281 1.3594-0.65625 0-1.2344-0.125-1.7344-0.375-0.5-0.25781-0.95312-0.66016-1.3594-1.2031v1.3438h-2.9844v-12.969h2.9844z"/>
  </symbol>
  <symbol id="h" overflow="visible">
   <path d="m0.20312-9.3438h2.9844l2.5156 6.3438 2.1406-6.3438h2.9844l-3.9375 10.234c-0.39844 1.0312-0.85547 1.7539-1.375 2.1719-0.52344 0.41406-1.2148 0.625-2.0781 0.625h-1.7344v-1.9688h0.9375c0.50781 0 0.87891-0.078125 1.1094-0.23438 0.22656-0.15625 0.40625-0.44922 0.53125-0.875l0.09375-0.25z"/>
  </symbol>
  <symbol id="g" overflow="visible">
   <path d="m0.078125-12.453h3.2344l3.2969 9.1875 3.2969-9.1875h3.2344l-4.625 12.453h-3.8281z"/>
  </symbol>
  <symbol id="f" overflow="visible">
   <path d="m8.9844-9.0469v2.4375c-0.40625-0.28125-0.82031-0.48828-1.2344-0.625-0.40625-0.13281-0.82812-0.20312-1.2656-0.20312-0.83594 0-1.4844 0.24609-1.9531 0.73438-0.46094 0.49219-0.6875 1.1719-0.6875 2.0469 0 0.86719 0.22656 1.543 0.6875 2.0312 0.46875 0.49219 1.1172 0.73438 1.9531 0.73438 0.46875 0 0.91016-0.066406 1.3281-0.20312 0.42578-0.14453 0.81641-0.35156 1.1719-0.625v2.4375c-0.46875 0.17969-0.94531 0.30469-1.4219 0.39062-0.48047 0.082031-0.96484 0.125-1.4531 0.125-1.6875 0-3.0078-0.42969-3.9531-1.2969-0.94922-0.86328-1.4219-2.0625-1.4219-3.5938 0-1.5391 0.47266-2.7422 1.4219-3.6094 0.94531-0.86328 2.2656-1.2969 3.9531-1.2969 0.48828 0 0.96875 0.042969 1.4375 0.125 0.47656 0.085938 0.95703 0.21484 1.4375 0.39062z"/>
  </symbol>
  <symbol id="d" overflow="visible">
   <path d="m5.875-7.4375c-0.65625 0-1.1641 0.24219-1.5156 0.71875-0.34375 0.48047-0.51562 1.168-0.51562 2.0625 0 0.89844 0.17188 1.5859 0.51562 2.0625 0.35156 0.46875 0.85938 0.70312 1.5156 0.70312s1.1562-0.23438 1.5-0.70312c0.34375-0.47656 0.51562-1.1641 0.51562-2.0625 0-0.89453-0.17188-1.582-0.51562-2.0625-0.34375-0.47656-0.84375-0.71875-1.5-0.71875zm0-2.125c1.6016 0 2.8594 0.43359 3.7656 1.2969 0.90625 0.86719 1.3594 2.0703 1.3594 3.6094 0 1.5312-0.45312 2.7305-1.3594 3.5938-0.90625 0.86719-2.1641 1.2969-3.7656 1.2969-1.6172 0-2.875-0.42969-3.7812-1.2969-0.90625-0.86328-1.3594-2.0625-1.3594-3.5938 0-1.5391 0.45312-2.7422 1.3594-3.6094 0.90625-0.86328 2.1641-1.2969 3.7812-1.2969z"/>
  </symbol>
  <symbol id="u" overflow="visible">
   <path d="m8.7344-9.0469v2.2656c-0.64844-0.26953-1.2656-0.46875-1.8594-0.59375-0.59375-0.13281-1.1562-0.20312-1.6875-0.20312-0.5625 0-0.98438 0.074219-1.2656 0.21875-0.27344 0.13672-0.40625 0.35156-0.40625 0.64062 0 0.24219 0.10156 0.42969 0.3125 0.5625 0.20703 0.125 0.58203 0.21875 1.125 0.28125l0.53125 0.078125c1.5195 0.1875 2.5469 0.50781 3.0781 0.95312 0.53125 0.44922 0.79688 1.1484 0.79688 2.0938 0 0.99219-0.37109 1.7344-1.1094 2.2344-0.73047 0.5-1.8242 0.75-3.2812 0.75-0.61719 0-1.2578-0.046875-1.9219-0.14062-0.65625-0.09375-1.3281-0.23828-2.0156-0.4375v-2.2656c0.59375 0.29297 1.2031 0.51172 1.8281 0.65625 0.625 0.13672 1.2578 0.20312 1.9062 0.20312 0.58203 0 1.0195-0.078125 1.3125-0.23438 0.28906-0.15625 0.4375-0.39453 0.4375-0.71875 0-0.26953-0.10547-0.46875-0.3125-0.59375-0.19922-0.13281-0.60156-0.23828-1.2031-0.3125l-0.51562-0.0625c-1.3359-0.16406-2.2656-0.47266-2.7969-0.92188-0.53125-0.44531-0.79688-1.1289-0.79688-2.0469 0-0.98828 0.33594-1.7227 1.0156-2.2031 0.67578-0.47656 1.7109-0.71875 3.1094-0.71875 0.55078 0 1.1289 0.042969 1.7344 0.125 0.60156 0.085938 1.2656 0.21484 1.9844 0.39062z"/>
  </symbol>
  <symbol id="t" overflow="visible">
   <path d="m1.5625-12.453h4.0938l2.8281 6.6719 2.8594-6.6719h4.0781v12.453h-3.0312v-9.1094l-2.875 6.7188h-2.0312l-2.875-6.7188v9.1094h-3.0469z"/>
  </symbol>
  <symbol id="s" overflow="visible">
   <path d="m1.4375-12.969h2.9844v7.0625l3.4375-3.4375h3.4688l-4.5625 4.2969 4.9219 5.0469h-3.625l-3.6406-3.8906v3.8906h-2.9844z"/>
  </symbol>
  <symbol id="r" overflow="visible">
   <path d="m7.5781-12.969v1.9531h-1.6562c-0.41797 0-0.71094 0.078125-0.875 0.23438-0.16797 0.14844-0.25 0.41406-0.25 0.79688v0.64062h2.5469v2.1406h-2.5469v7.2031h-2.9844v-7.2031h-1.4844v-2.1406h1.4844v-0.64062c0-1.0195 0.28125-1.7695 0.84375-2.25 0.57031-0.48828 1.4531-0.73438 2.6406-0.73438z"/>
  </symbol>
  <symbol id="q" overflow="visible">
   <path d="m10.094-7.7812c0.375-0.58203 0.82031-1.0234 1.3438-1.3281 0.51953-0.30078 1.0938-0.45312 1.7188-0.45312 1.0703 0 1.8828 0.33594 2.4375 1 0.5625 0.65625 0.84375 1.6172 0.84375 2.875v5.6875h-3v-4.875c0.007812-0.070312 0.015625-0.14453 0.015625-0.21875v-0.32812c0-0.66406-0.10156-1.1445-0.29688-1.4375-0.1875-0.30078-0.5-0.45312-0.9375-0.45312-0.5625 0-1 0.23438-1.3125 0.70312-0.30469 0.46875-0.46094 1.1406-0.46875 2.0156v4.5938h-3v-4.875c0-1.0312-0.09375-1.6914-0.28125-1.9844-0.17969-0.30078-0.49219-0.45312-0.9375-0.45312-0.57422 0-1.0156 0.23438-1.3281 0.70312s-0.46875 1.1406-0.46875 2.0156v4.5938h-3v-9.3438h3v1.375c0.36328-0.53125 0.78125-0.92578 1.25-1.1875 0.47656-0.26953 1.0039-0.40625 1.5781-0.40625 0.64453 0 1.2109 0.15625 1.7031 0.46875 0.5 0.3125 0.87891 0.75 1.1406 1.3125z"/>
  </symbol>
  <symbol id="p" overflow="visible">
   <path d="m10.828-5.6875v5.6875h-3v-4.3438c0-0.8125-0.023437-1.3672-0.0625-1.6719-0.03125-0.3125-0.09375-0.53906-0.1875-0.6875-0.11719-0.1875-0.27734-0.33203-0.48438-0.4375-0.19922-0.11328-0.42188-0.17188-0.67188-0.17188-0.625 0-1.1172 0.24219-1.4688 0.71875-0.35547 0.48047-0.53125 1.1484-0.53125 2v4.5938h-2.9844v-12.969h2.9844v5c0.44531-0.55078 0.92188-0.95312 1.4219-1.2031 0.50781-0.25781 1.0703-0.39062 1.6875-0.39062 1.0703 0 1.8906 0.33594 2.4531 1 0.5625 0.65625 0.84375 1.6172 0.84375 2.875z"/>
  </symbol>
  <symbol id="o" overflow="visible">
   <path d="m1.5625-12.453h3.5938l4.5312 8.5469v-8.5469h3.0312v12.453h-3.5781l-4.5312-8.5469v8.5469h-3.0469z"/>
  </symbol>
  <symbol id="n" overflow="visible">
   <path d="m1.3281-3.6406v-5.7031h3.0156v0.9375c0 0.51172-0.007812 1.1484-0.015625 1.9062-0.011719 0.76172-0.015625 1.2734-0.015625 1.5312 0 0.75 0.019531 1.293 0.0625 1.625 0.039062 0.32422 0.10938 0.5625 0.20312 0.71875 0.125 0.19922 0.28516 0.35156 0.48438 0.45312 0.19531 0.10547 0.42188 0.15625 0.67188 0.15625 0.625 0 1.1133-0.23828 1.4688-0.71875 0.35156-0.47656 0.53125-1.1445 0.53125-2v-4.6094h2.9844v9.3438h-2.9844v-1.3438c-0.44922 0.54297-0.92969 0.94531-1.4375 1.2031-0.5 0.25-1.0547 0.375-1.6562 0.375-1.0742 0-1.8984-0.32812-2.4688-0.98438-0.5625-0.66406-0.84375-1.6289-0.84375-2.8906z"/>
  </symbol>
  <symbol id="m" overflow="visible">
   <path d="m10.828-5.6875v5.6875h-3v-4.3594c0-0.80078-0.023437-1.3516-0.0625-1.6562-0.03125-0.3125-0.09375-0.53906-0.1875-0.6875-0.11719-0.1875-0.27734-0.33203-0.48438-0.4375-0.19922-0.11328-0.42188-0.17188-0.67188-0.17188-0.625 0-1.1172 0.24219-1.4688 0.71875-0.35547 0.48047-0.53125 1.1484-0.53125 2v4.5938h-2.9844v-9.3438h2.9844v1.375c0.44531-0.55078 0.92188-0.95312 1.4219-1.2031 0.50781-0.25781 1.0703-0.39062 1.6875-0.39062 1.0703 0 1.8906 0.33594 2.4531 1 0.5625 0.65625 0.84375 1.6172 0.84375 2.875z"/>
  </symbol>
  <symbol id="l" overflow="visible">
   <path d="m1.5625-12.453h5.3281c1.582 0 2.7969 0.35547 3.6406 1.0625 0.85156 0.69922 1.2812 1.6992 1.2812 3 0 1.3125-0.42969 2.3242-1.2812 3.0312-0.84375 0.69922-2.0586 1.0469-3.6406 1.0469h-2.1094v4.3125h-3.2188zm3.2188 2.3281v3.4844h1.7656c0.625 0 1.1016-0.14844 1.4375-0.45312 0.34375-0.3125 0.51562-0.74219 0.51562-1.2969 0-0.55078-0.17188-0.97656-0.51562-1.2812-0.33594-0.30078-0.8125-0.45312-1.4375-0.45312z"/>
  </symbol>
  <symbol id="k" overflow="visible">
   <path d="m1.4375-9.3438h2.9844v9.1719c0 1.25-0.30469 2.2031-0.90625 2.8594-0.59375 0.66406-1.4648 1-2.6094 1h-1.4688v-1.9688h0.51562c0.5625 0 0.94531-0.13281 1.1562-0.39062 0.21875-0.25 0.32812-0.75 0.32812-1.5zm0-3.625h2.9844v2.4219h-2.9844z"/>
  </symbol>
 </defs>
 <g>
  <path d="m626.59 262.93c0-1.0234-0.33984-1.707-1.0234-2.3906l-14.34-14.34c-16.73-134.54-131.46-235.61-267.37-235.61-67.27 0-131.46 24.926-180.98 70h-0.33984v-34.145c0-1.707-1.3672-3.4141-3.4141-3.4141-10.926 0-21.172 4.0977-28.684 11.953-7.8555 7.8555-11.953 18.098-11.953 28.684v48.488c-28.684 44.043-43.707 94.922-43.707 147.85 0 33.465 6.1445 66.242 18.098 96.977-11.609 5.4609-19.465 17.07-19.465 30.391 0 18.438 15.023 33.465 33.465 33.465h21.172c50.535 67.953 131.46 108.59 216.14 108.59 148.54 0 269.41-120.88 269.41-269.41v-2.3906l12.293-12.293c0.33984-0.6875 0.68359-1.3672 0.68359-2.3945zm-282.39-245.51c129.41 0 239.37 94.586 259.51 221.27l-85.367-85.367v-31.758c0-22.535-18.438-40.633-40.633-40.633h-32.098l-29.367-29.367c-1.3672-1.3672-3.4141-1.3672-4.7812 0l-29.367 29.367h-208.97c47.805-41.316 107.9-63.512 171.07-63.512zm167.32 103.8v25.27l-59.074-59.074h25.27c18.438-0.33984 33.805 15.023 33.805 33.805zm-348.63 150.59v-184.39h212.73l-8.1953 8.1953c-1.3672 1.3672-1.3672 3.4141 0 4.7812 14.34 14.34 144.1 144.1 144.1 144.1v117.8c-7.8555-11.953-20.828-18.438-34.145-18.438h-317.56c-18.781 0-34.145-15.367-34.145-34.145 0-18.781 15.367-34.145 34.145-34.145 1.707-0.6875 3.0742-2.0547 3.0742-3.7617zm348.63 112.34c0 18.781-15.367 34.145-34.145 34.145h-17.074v-68.293h17.074c19.121 0.003906 34.145 15.711 34.145 34.148zm-375.95-324.39c5.8047-5.8047 12.977-9.2188 20.828-9.9023v218.54c-12.977 1.0234-23.902 8.1953-30.73 18.438v-203.17c-0.34375-8.8789 3.4141-17.758 9.9023-23.902zm-21.516 374.24h-7.1719c-14.684 0-26.633-11.953-26.633-26.633 0-14.684 11.953-26.633 26.633-26.633h7.1719zm20.148-36.535v36.879h-13.316v-53.609h13.316zm32.438 76.145h354.78c-46.781 43.023-108.93 68.977-177.22 68.977-66.242 0-129.41-24.926-177.56-68.977zm361.95-6.4883h-368.78c-8.1953-8.1953-16.047-16.73-23.219-26.293h202.14c0.33984 0 1.3672-0.33984 1.707-0.33984l57.023-30.047c1.0234-0.68359 1.707-1.707 1.707-3.0742 0-1.3672-0.68359-2.3906-1.707-3.0742l-57.023-30.047c-0.68359-0.33984-1.3672-0.33984-1.707-0.33984h-231.51c-2.7305 0-5.1211 0.33984-7.8555 1.0234-11.949-30.395-18.094-62.148-18.094-94.93 0-48.145 12.977-94.586 37.562-135.22v164.24c0 22.535 18.438 40.633 40.633 40.633h294v71.707c0 1.707 1.3672 3.4141 3.4141 3.4141h20.488c22.535 0 40.633-18.438 40.633-40.633v-133.51l59.074 59.074c0.68359 0.68359 1.3672 1.0234 2.3906 1.0234 1.0234 0 1.707-0.33984 2.3906-1.0234l25.27-25.27c-1.7109 71.027-31.418 135.9-78.539 182.68zm-193.61-66.242v33.465l-194.29-0.003906v-33.465zm-194.29-6.832v-13.316h194.29v13.316zm201.12 37.906v-49.172l20.828 10.926v27.316zm27.316-14.344v-20.145l19.121 10.242zm238.34-143.75-28.34 28.34-10.926-10.926 8.5352-8.5352c1.3672-1.3672 1.3672-3.4141 0-4.7812s-3.4141-1.3672-4.7812 0l-8.5352 8.5352-15.023-15.023 8.5352-8.5352c1.3672-1.3672 1.3672-3.4141 0-4.7812-1.3672-1.3672-3.4141-1.3672-4.7812 0l-8.5352 8.5352-15.023-15.023 8.5352-8.5352c1.3672-1.3672 1.3672-3.4141 0-4.7812s-3.4141-1.3672-4.7812 0l-8.5352 8.5352c-0.33984-0.33984-16.047-16.047-15.023-15.023l8.5352-8.5352c1.3672-1.3672 1.3672-3.4141 0-4.7812-1.3672-1.3672-3.4141-1.3672-4.7812 0l-8.5352 8.5352-15.023-15.023 8.5352-8.5352c1.3672-1.3672 1.3672-3.4141 0-4.7812s-3.4141-1.3672-4.7812 0l-8.5352 8.5352-15.023-15.023 8.5352-8.5352c1.3672-1.3672 1.3672-3.4141 0-4.7812-1.3672-1.3672-3.4141-1.3672-4.7812 0l-8.5352 8.5352-15.023-15.023 8.5352-8.5352c1.3672-1.3672 1.3672-3.4141 0-4.7812s-3.4141-1.3672-4.7812 0l-8.5352 8.5352-15.023-15.023 8.5352-8.5352c1.3672-1.3672 1.3672-3.4141 0-4.7812-1.3672-1.3672-3.4141-1.3672-4.7812 0l-8.5352 8.5352-15.023-15.023 8.5352-8.5352c1.3672-1.3672 1.3672-3.4141 0-4.7812s-3.4141-1.3672-4.7812 0l-8.5352 8.5352-15.023-15.023 8.5352-8.5352c1.3672-1.3672 1.3672-3.4141 0-4.7812-1.3672-1.3672-3.4141-1.3672-4.7812 0l-8.5352 8.5352-10.926-10.926 39.605-39.273 204.88 204.88z"/>
  <path d="m304.93 234.93c6.1445 0 11.953-2.3906 16.391-6.8281s6.8281-10.242 6.8281-16.391c0-6.1445-2.3906-11.953-6.8281-16.391-9.2188-9.2188-23.902-9.2188-32.781 0-9.2188 9.2188-9.2188 23.902 0 32.781 4.0977 4.4375 9.9023 6.8281 16.391 6.8281zm-11.949-35.168c3.0742-3.0742 7.5117-4.7812 11.609-4.7812 4.0977 0 8.5352 1.707 11.609 4.7812 3.0742 3.0742 4.7812 7.1719 4.7812 11.609s-1.707 8.5352-4.7812 11.609c-3.0742 3.0742-7.1719 4.7812-11.609 4.7812s-8.5352-1.707-11.609-4.7812c-6.4883-6.1484-6.4883-16.734 0-23.219z"/>
  <path d="m239.71 242.78 2.7305 2.7305-15.363 4.7812c-1.0234 0.33984-2.0469 1.3672-2.0469 2.3906-0.33984 1.0234 0 2.3906 1.0234 3.0742l34.828 34.828c0.68359 0.68359 2.0469 1.0234 3.0742 1.0234 1.0234-0.33984 2.0469-1.0234 2.3906-2.0469l5.1211-15.367 26.293 26.293c0.68359 0.68359 1.3672 1.0234 2.3906 1.0234 0.68359 0 1.707-0.33984 2.3906-1.0234 10.586-10.586 14-26.293 9.2188-40.293 54.977-39.953 50.879-101.07 51.562-102.78 0-1.0234-0.33984-1.707-1.0234-2.3906-0.68359-0.68359-1.707-1.0234-2.3906-1.0234-2.0469 0.68359-62.145-4.4375-102.78 51.562-14-5.1211-29.707-1.3672-40.293 9.2188-1.3672 1.3672-1.3672 3.4141 0 4.7812zm21.512 39.266-26.977-26.977 13.316-4.4375 18.098 18.098zm38.246 10.93-17.414-17.414c7.1719-2.7305 15.707-6.8281 23.219-11.609 3.0703 10.242 0.68359 21.168-5.8047 29.023zm-39.27-81.609c36.195-52.242 94.926-50.535 95.609-50.535 0 0.33984 0.33984 82.293-78.879 109.95l-13.66-13.66c1.707 1.707-0.33984-0.33984-17.414-17.414 5.8086-16.734 12.637-25.953 14.344-28.344zm-7.8555-0.34375c-4.4375 7.1719-8.5352 15.023-11.609 23.219l-17.414-17.414c8.1953-6.4883 18.781-8.5352 29.023-5.8047z"/>
  <path d="m263.27 256.78c-2.0508-1.707-8.8789-8.5391 0 0z"/>
  <path d="m213.41 285.12 12.977-12.977c1.3672-1.3672 1.3672-3.4141 0-4.7812-1.3672-1.3672-3.4141-1.3672-4.7812 0l-12.977 12.977c-1.3672 1.3672-1.3672 3.4141 0 4.7812 1.3672 1.3672 3.4141 1.3672 4.7812 0z"/>
  <path d="m230.49 285.8c-1.3672-1.3672-3.4141-1.3672-4.7812 0l-12.977 12.977c-1.3672 1.3672-1.3672 3.4141 0 4.7812 1.3672 1.3672 3.4141 1.3672 4.7812 0l12.977-12.977c1.3672-1.3672 1.3672-3.4141 0-4.7812z"/>
  <path d="m244.14 289.9-12.977 12.977c-1.3672 1.3672-1.3672 3.4141 0 4.7812 1.3672 1.3672 3.4141 1.3672 4.7812 0l12.977-12.977c1.3672-1.3672 1.3672-3.4141 0-4.7812-1.3633-1.0234-3.4141-1.0234-4.7812 0z"/>
  <path d="m336.34 493.76c0-1.707-1.3672-3.4141-3.4141-3.4141l-80.586-0.003906c-1.707 0-3.4141 1.3672-3.4141 3.4141 0 1.707 1.3672 3.4141 3.4141 3.4141l80.586 0.003906c2.0508 0 3.4141-1.707 3.4141-3.4141z"/>
  <path d="m362.63 493.76c0-1.707-1.3672-3.4141-3.4141-3.4141h-13.316c-1.707 0-3.4141 1.3672-3.4141 3.4141 0 1.707 1.3672 3.4141 3.4141 3.4141h13.316c1.707 0 3.4141-1.707 3.4141-3.4141z"/>
  <path d="m370.49 497.17h8.8789c1.707 0 3.4141-1.3672 3.4141-3.4141 0-1.707-1.3672-3.4141-3.4141-3.4141l-8.8789-0.003906c-1.707 0-3.4141 1.3672-3.4141 3.4141 0.33984 1.7109 1.707 3.418 3.4141 3.418z"/>
  <path d="m435.71 506.73h-80.586c-1.707 0-3.4141 1.3672-3.4141 3.4141s1.3672 3.4141 3.4141 3.4141h80.586c1.707 0 3.4141-1.3672 3.4141-3.4141s-1.707-3.4141-3.4141-3.4141z"/>
  <path d="m342.14 506.73h-13.316c-1.707 0-3.4141 1.3672-3.4141 3.4141s1.3672 3.4141 3.4141 3.4141h13.316c1.707 0 3.4141-1.3672 3.4141-3.4141 0.003906-2.0469-1.7031-3.4141-3.4141-3.4141z"/>
  <path d="m317.56 506.73h-8.8789c-1.707 0-3.4141 1.3672-3.4141 3.4141s1.3672 3.4141 3.4141 3.4141h8.8789c1.707 0 3.4141-1.3672 3.4141-3.4141s-1.707-3.4141-3.4141-3.4141z"/>
  <use x="70" y="611.21875" xlink:href="#v"/>
  <use x="82.53125" y="611.21875" xlink:href="#c"/>
  <use x="90.949219" y="611.21875" xlink:href="#a"/>
  <use x="102.527344" y="611.21875" xlink:href="#e"/>
  <use x="114.050781" y="611.21875" xlink:href="#b"/>
  <use x="122.210938" y="611.21875" xlink:href="#a"/>
  <use x="133.789062" y="611.21875" xlink:href="#j"/>
  <use x="151.957031" y="611.21875" xlink:href="#i"/>
  <use x="164.175781" y="611.21875" xlink:href="#h"/>
  <use x="181.25" y="611.21875" xlink:href="#g"/>
  <use x="194.464844" y="611.21875" xlink:href="#a"/>
  <use x="206.042969" y="611.21875" xlink:href="#f"/>
  <use x="216.164062" y="611.21875" xlink:href="#b"/>
  <use x="224.324219" y="611.21875" xlink:href="#d"/>
  <use x="236.054688" y="611.21875" xlink:href="#c"/>
  <use x="244.476562" y="611.21875" xlink:href="#u"/>
  <use x="260.582031" y="611.21875" xlink:href="#t"/>
  <use x="277.570312" y="611.21875" xlink:href="#e"/>
  <use x="289.09375" y="611.21875" xlink:href="#c"/>
  <use x="297.511719" y="611.21875" xlink:href="#s"/>
  <use x="308.867188" y="611.21875" xlink:href="#a"/>
  <use x="320.445312" y="611.21875" xlink:href="#b"/>
  <use x="70" y="628.292969" xlink:href="#r"/>
  <use x="77.429688" y="628.292969" xlink:href="#c"/>
  <use x="85.847656" y="628.292969" xlink:href="#d"/>
  <use x="97.578125" y="628.292969" xlink:href="#q"/>
  <use x="121.3125" y="628.292969" xlink:href="#b"/>
  <use x="129.472656" y="628.292969" xlink:href="#p"/>
  <use x="141.628906" y="628.292969" xlink:href="#a"/>
  <use x="159.152344" y="628.292969" xlink:href="#o"/>
  <use x="173.4375" y="628.292969" xlink:href="#d"/>
  <use x="185.167969" y="628.292969" xlink:href="#n"/>
  <use x="197.324219" y="628.292969" xlink:href="#m"/>
  <use x="215.421875" y="628.292969" xlink:href="#l"/>
  <use x="227.933594" y="628.292969" xlink:href="#c"/>
  <use x="236.355469" y="628.292969" xlink:href="#d"/>
  <use x="248.085938" y="628.292969" xlink:href="#k"/>
  <use x="253.9375" y="628.292969" xlink:href="#a"/>
  <use x="265.515625" y="628.292969" xlink:href="#f"/>
  <use x="275.636719" y="628.292969" xlink:href="#b"/>
 </g>
</svg>
